<svg width="19" height="16" viewBox="0 0 19 16" fill="none" xmlns="http://www.w3.org/2000/svg">
<circle cx="5" cy="14" r="1" transform="rotate(90 5 14)" fill="black" style="fill:black;fill-opacity:1;"/>
<circle cx="5" cy="2" r="1" transform="rotate(90 5 2)" fill="black" style="fill:black;fill-opacity:1;"/>
<circle cx="8" cy="14" r="1" transform="rotate(90 8 14)" fill="black" style="fill:black;fill-opacity:1;"/>
<circle cx="8" cy="2" r="1" transform="rotate(90 8 2)" fill="black" style="fill:black;fill-opacity:1;"/>
<circle cx="8" cy="5" r="1" transform="rotate(90 8 5)" fill="black" style="fill:black;fill-opacity:1;"/>
<circle cx="8" cy="11" r="1" transform="rotate(90 8 11)" fill="black" style="fill:black;fill-opacity:1;"/>
<circle cx="11" cy="5" r="1" transform="rotate(90 11 5)" fill="black" style="fill:black;fill-opacity:1;"/>
<circle cx="11" cy="11" r="1" transform="rotate(90 11 11)" fill="black" style="fill:black;fill-opacity:1;"/>
<circle cx="11" cy="8" r="1" transform="rotate(90 11 8)" fill="black" style="fill:black;fill-opacity:1;"/>
<circle cx="14" cy="8" r="1" transform="rotate(90 14 8)" fill="black" style="fill:black;fill-opacity:1;"/>
</svg>
