<svg width="19" height="16" viewBox="0 0 19 16" fill="none" xmlns="http://www.w3.org/2000/svg">
<path d="M15 1H19V15H15V1Z" fill="black" style="fill:black;fill-opacity:1;"/>
<path fill-rule="evenodd" clip-rule="evenodd" d="M5 1C4.44772 1 4 1.44772 4 2V1H5ZM4 15V14C4 14.5523 4.44772 15 5 15H4Z" fill="black" style="fill:black;fill-opacity:1;"/>
<path d="M4 2V1H0V15H4V14V2Z" fill="black" style="fill:black;fill-opacity:1;"/>
<path fill-rule="evenodd" clip-rule="evenodd" d="M5 3C4.44772 3 4 2.55228 4 2V14C4 13.4477 4.44772 13 5 13C5.55228 13 6 13.4477 6 14C6 14.5523 5.55228 15 5 15H8C7.44772 15 7 14.5523 7 14C7 13.4477 7.44772 13 8 13C8.55228 13 9 13.4477 9 14C9 14.5523 8.55228 15 8 15H15V8C15 8.55228 14.5523 9 14 9C13.4477 9 13 8.55228 13 8C13 7.44772 13.4477 7 14 7C14.5523 7 15 7.44772 15 8V1H8C8.55228 1 9 1.44772 9 2C9 2.55228 8.55228 3 8 3C7.44772 3 7 2.55228 7 2C7 1.44772 7.44772 1 8 1H5C5.55228 1 6 1.44772 6 2C6 2.55228 5.55228 3 5 3ZM8 6C7.44772 6 7 5.55228 7 5C7 4.44772 7.44772 4 8 4C8.55228 4 9 4.44772 9 5C9 5.55228 8.55228 6 8 6ZM7 11C7 11.5523 7.44772 12 8 12C8.55228 12 9 11.5523 9 11C9 10.4477 8.55228 10 8 10C7.44772 10 7 10.4477 7 11ZM11 6C10.4477 6 10 5.55228 10 5C10 4.44772 10.4477 4 11 4C11.5523 4 12 4.44772 12 5C12 5.55228 11.5523 6 11 6ZM10 11C10 11.5523 10.4477 12 11 12C11.5523 12 12 11.5523 12 11C12 10.4477 11.5523 10 11 10C10.4477 10 10 10.4477 10 11ZM11 9C10.4477 9 10 8.55228 10 8C10 7.44772 10.4477 7 11 7C11.5523 7 12 7.44772 12 8C12 8.55228 11.5523 9 11 9Z" fill="black" style="fill:black;fill-opacity:1;"/>
<path d="M0 0H19V1H0V0Z" fill="black" style="fill:black;fill-opacity:1;"/>
<path d="M0 15H19V16H0V15Z" fill="black" style="fill:black;fill-opacity:1;"/>
</svg>
